<svg width="20" height="20" viewBox="0 0 20 20" fill="none" xmlns="http://www.w3.org/2000/svg">
<g id="fi_951715" clip-path="url(#clip0_6_188)">
<g id="Group">
<g id="Group_2">
<path id="Vector" d="M0.176795 10.6431L5.57844 16.0448C5.72512 16.1914 5.93683 16.2525 6.13898 16.2066L7.95621 15.7936L7.54152 17.6082C7.49527 17.8106 7.55629 18.0226 7.70316 18.1695L9.35691 19.8232C9.47004 19.9364 9.62356 20 9.78367 20C9.94379 20 10.0973 19.9364 10.2104 19.8232L17.4362 12.5974C18.7123 11.3213 18.7123 9.2448 17.4362 7.96867L16.2153 6.74773L19.3863 3.57676C19.782 3.18106 20 2.65484 20 2.09523C20 1.53559 19.782 1.00941 19.3863 0.61371C18.9906 0.217968 18.4645 1.34242e-07 17.9048 1.83171e-07C17.3452 2.32094e-07 16.819 0.217968 16.4233 0.613711L13.2523 3.78469L12.0313 2.56379C10.7552 1.2877 8.67875 1.28762 7.40261 2.56379L0.176795 9.78957C-0.0589456 10.0252 -0.0589455 10.4074 0.176795 10.6431ZM8.25621 3.41734C9.06168 2.61188 10.3723 2.61188 11.1778 3.41734L12.8255 5.065C13.0612 5.30066 13.4434 5.30066 13.6791 5.065L17.2769 1.46727C17.4446 1.29953 17.6676 1.20715 17.9047 1.20715C18.142 1.20715 18.365 1.29953 18.5327 1.46734C18.7004 1.63504 18.7928 1.85805 18.7928 2.09527C18.7928 2.33246 18.7004 2.55547 18.5327 2.7232L14.935 6.32098C14.6993 6.55664 14.6993 6.93883 14.935 7.17453L16.5826 8.82223C17.3881 9.62773 17.3881 10.9383 16.5826 11.7438L16.1479 12.1785L7.8214 3.85195L8.25621 3.41734ZM6.96789 4.70555L15.2944 13.0321L9.78367 18.5429L8.79269 17.5518L9.34684 15.1267C9.39309 14.9245 9.33215 14.7125 9.18547 14.5657C9.03875 14.4189 8.82707 14.3577 8.62465 14.4037L6.19633 14.9556L1.45707 10.2164L6.96789 4.70555Z" fill="#101828"/>
</g>
</g>
</g>
<defs>
<clipPath id="clip0_6_188">
<rect width="20" height="20" fill="white"/>
</clipPath>
</defs>
</svg>
