<svg width="20" height="20" viewBox="0 0 20 20" fill="none" xmlns="http://www.w3.org/2000/svg">
<g id="fi_684815">
<g id="Group">
<g id="Group_2">
<path id="Vector" d="M18.2422 5.89796H14.1407V2.96827C14.1407 1.99901 13.3521 1.21045 12.3828 1.21045H1.75782C0.788556 1.21045 0 1.99901 0 2.96827V9.99953C0 10.9688 0.788556 11.7573 1.75782 11.7573H2.34375V13.5152C2.34375 13.9844 2.8679 14.2605 3.25469 14.0027L5.85939 12.2663V14.687C5.85939 15.6563 6.64794 16.4449 7.6172 16.4449H13.3773L16.7453 18.6902C17.1327 18.9485 17.6562 18.672 17.6562 18.2027V16.4449H18.2422C19.2114 16.4449 20 15.6563 20 14.687V7.65577C20 6.68651 19.2115 5.89796 18.2422 5.89796ZM6.11868 10.685C6.11814 10.6854 6.11755 10.6857 6.117 10.6861L3.51563 12.4203V11.1714C3.51563 10.8478 3.25329 10.5855 2.92969 10.5855H1.75782C1.43473 10.5855 1.17188 10.3226 1.17188 9.99953V2.96827C1.17188 2.64518 1.43473 2.38233 1.75782 2.38233H12.3828C12.7059 2.38233 12.9688 2.64518 12.9688 2.96827V9.99953C12.9688 10.3226 12.7059 10.5855 12.3828 10.5855H6.44533C6.33193 10.5855 6.21474 10.6205 6.11868 10.685ZM18.8282 14.687C18.8282 15.0101 18.5653 15.273 18.2422 15.273H17.0703C16.7468 15.273 16.4844 15.5353 16.4844 15.8589V17.1078L13.8797 15.3714C13.7835 15.3072 13.6704 15.273 13.5547 15.273H7.6172C7.29412 15.273 7.03126 15.0101 7.03126 14.687V11.7573H12.3828C13.3521 11.7573 14.1407 10.9688 14.1407 9.99953V7.06984H18.2422C18.5653 7.06984 18.8282 7.33269 18.8282 7.65577V14.687Z" fill="#101828"/>
</g>
</g>
<g id="Group_3">
<g id="Group_4">
<path id="Vector_2" d="M7.6172 7.06982H2.92969C2.60609 7.06982 2.34375 7.33217 2.34375 7.65576C2.34375 7.97936 2.60609 8.2417 2.92969 8.2417H7.6172C7.94079 8.2417 8.20314 7.97936 8.20314 7.65576C8.20314 7.33217 7.94079 7.06982 7.6172 7.06982Z" fill="#101828"/>
</g>
</g>
<g id="Group_5">
<g id="Group_6">
<path id="Vector_3" d="M11.211 4.72607H2.92969C2.60609 4.72607 2.34375 4.98842 2.34375 5.31201C2.34375 5.63561 2.60609 5.89795 2.92969 5.89795H11.211C11.5345 5.89795 11.7969 5.63561 11.7969 5.31201C11.7969 4.98842 11.5345 4.72607 11.211 4.72607Z" fill="#101828"/>
</g>
</g>
</g>
</svg>
