<svg width="24" height="24" viewBox="0 0 24 24" fill="none" xmlns="http://www.w3.org/2000/svg">
<g id="fi_446136" clip-path="url(#clip0_107_661)">
<g id="Group">
<g id="Group_2">
<path id="Vector" d="M12 0C5.36766 0 0 5.36705 0 12C0 18.6323 5.36705 24 12 24C18.6323 24 24 18.633 24 12C24 5.36766 18.633 0 12 0ZM12 22.4C6.26545 22.4 1.59998 17.7346 1.59998 12C1.59998 6.26541 6.26545 1.59998 12 1.59998C17.7345 1.59998 22.4 6.26545 22.4 12C22.4 17.7345 17.7345 22.4 12 22.4Z" fill="#344054"/>
</g>
</g>
<g id="Group_3">
<g id="Group_4">
<path id="Vector_2" d="M17.4066 11.2H12.7998V6.59323C12.7998 6.15143 12.4416 5.79321 11.9998 5.79321C11.5579 5.79321 11.1998 6.15138 11.1998 6.59323V11.2H6.59298C6.15119 11.2 5.79297 11.5582 5.79297 12C5.79297 12.4419 6.15114 12.8 6.59298 12.8H11.1998V17.4068C11.1998 17.8486 11.5579 18.2068 11.9998 18.2068C12.4416 18.2068 12.7998 17.8487 12.7998 17.4068V12.8H17.4066C17.8484 12.8 18.2066 12.4419 18.2066 12C18.2066 11.5582 17.8484 11.2 17.4066 11.2Z" fill="#344054"/>
</g>
</g>
</g>
<defs>
<clipPath id="clip0_107_661">
<rect width="24" height="24" fill="white"/>
</clipPath>
</defs>
</svg>
