<svg width="24" height="24" viewBox="0 0 24 24" fill="none" xmlns="http://www.w3.org/2000/svg">
<g id="fi_6718262" clip-path="url(#clip0_413_100736)">
<g id="Group">
<path id="Vector" d="M11.2031 11.25V10.1484C11.2031 8.65238 10.6204 7.24575 9.56231 6.18764C9.35058 5.97591 9.12239 5.78208 8.8807 5.60728C9.19453 5.05927 9.375 4.42552 9.375 3.75C9.375 1.68225 7.69275 0 5.625 0C3.55725 0 1.875 1.68225 1.875 3.75C1.875 4.41572 2.05012 5.04098 2.35561 5.58347C0.889687 6.62794 0 8.32772 0 10.1484V11.25C0 11.6383 0.314812 11.9531 0.703125 11.9531H10.5C10.8883 11.9531 11.2031 11.6383 11.2031 11.25ZM5.625 1.40625C6.91734 1.40625 7.96875 2.45766 7.96875 3.75C7.96875 5.04234 6.91734 6.09375 5.625 6.09375C4.33266 6.09375 3.28125 5.04234 3.28125 3.75C3.28125 2.45766 4.33266 1.40625 5.625 1.40625ZM9.79688 10.5469H1.40625V10.1484C1.40625 8.74566 2.11177 7.43869 3.26691 6.66295C3.91158 7.18584 4.73217 7.5 5.625 7.5C6.50798 7.5 7.32 7.1925 7.96144 6.68002C8.17819 6.82781 8.38153 6.99563 8.568 7.182C9.36042 7.97452 9.79688 9.02798 9.79688 10.1484V10.5469Z" fill="#7C69EF"/>
<path id="Vector_2" d="M22.3592 18.1876C22.1267 17.9551 21.8745 17.7442 21.606 17.5564C21.9061 17.0216 22.0781 16.4057 22.0781 15.75C22.0781 13.7081 20.4169 12.0469 18.375 12.0469C16.3331 12.0469 14.6719 13.7081 14.6719 15.75C14.6719 16.4155 14.8492 17.04 15.1578 17.5802C13.6909 18.6245 12.7969 20.3335 12.7969 22.1484V23.2969C12.7969 23.6852 13.1117 24 13.5 24H23.2969C23.6852 24 24 23.6852 24 23.2969V22.1484C24 20.6524 23.4173 19.2457 22.3592 18.1876ZM18.375 13.4531C19.6415 13.4531 20.6719 14.4835 20.6719 15.75C20.6719 17.0165 19.6415 18.0469 18.375 18.0469C17.1085 18.0469 16.0781 17.0165 16.0781 15.75C16.0781 14.4835 17.1085 13.4531 18.375 13.4531ZM22.5938 22.5938H14.2031V22.1484C14.2031 20.7454 14.9168 19.4266 16.0794 18.6525C16.711 19.1531 17.5084 19.4531 18.375 19.4531C19.2515 19.4531 20.0573 19.1464 20.6922 18.6355C20.9341 18.7938 21.1597 18.9768 21.3648 19.182C22.1573 19.9745 22.5938 21.028 22.5938 22.1484V22.5938Z" fill="#7C69EF"/>
<path id="Vector_3" d="M12 5.95312H16.9687C17.3565 5.95312 17.6719 6.26855 17.6719 6.65625V8.42752L17.3722 8.12784C17.0976 7.85325 16.6524 7.85325 16.3778 8.12784C16.1032 8.40244 16.1032 8.84761 16.3778 9.1222L17.8778 10.6222C18.0151 10.7595 18.195 10.8281 18.375 10.8281C18.555 10.8281 18.7349 10.7595 18.8722 10.6222L20.3722 9.12216C20.6467 8.84756 20.6467 8.40239 20.3722 8.1278C20.0976 7.8532 19.6524 7.8532 19.3778 8.1278L19.0781 8.42752V6.65625C19.0781 5.49314 18.1319 4.54688 16.9687 4.54688H12C11.6117 4.54688 11.2969 4.86169 11.2969 5.25C11.2969 5.63831 11.6117 5.95312 12 5.95312Z" fill="#7C69EF"/>
<path id="Vector_4" d="M12 18.0469H7.03127C6.64357 18.0469 6.32815 17.7315 6.32815 17.3438V15.5725L6.62787 15.8722C6.76512 16.0095 6.94507 16.0781 7.12502 16.0781C7.30498 16.0781 7.48493 16.0095 7.62218 15.8722C7.89677 15.5976 7.89677 15.1524 7.62218 14.8778L6.12218 13.3778C5.84763 13.1032 5.40241 13.1032 5.12782 13.3778L3.62782 14.8778C3.35323 15.1524 3.35323 15.5976 3.62782 15.8722C3.90237 16.1468 4.34759 16.1468 4.62218 15.8722L4.9219 15.5725V17.3438C4.9219 18.5069 5.86816 19.4531 7.03127 19.4531H12C12.3883 19.4531 12.7031 19.1383 12.7031 18.75C12.7031 18.3617 12.3883 18.0469 12 18.0469Z" fill="#7C69EF"/>
</g>
</g>
<defs>
<clipPath id="clip0_413_100736">
<rect width="24" height="24" fill="white"/>
</clipPath>
</defs>
</svg>
