<svg width="24" height="24" viewBox="0 0 24 24" fill="none" xmlns="http://www.w3.org/2000/svg">
<g id="fi_266134">
<g id="Group">
<g id="Group_2">
<path id="Vector" d="M15.0147 11.2736C16.2945 10.3403 17.1278 8.82984 17.1278 7.1282C17.1278 4.30051 14.8273 2 11.9996 2C9.17191 2 6.87141 4.30051 6.87141 7.1282C6.87141 8.82984 7.70473 10.3403 8.98449 11.2736C5.80324 12.491 3.53809 15.5754 3.53809 19.1795C3.53809 20.7347 4.80336 22 6.35859 22H17.6406C19.1959 22 20.4611 20.7347 20.4611 19.1795C20.4611 15.5754 18.196 12.491 15.0147 11.2736ZM8.40988 7.1282C8.40988 5.14883 10.0202 3.53848 11.9996 3.53848C13.979 3.53848 15.5893 5.14883 15.5893 7.1282C15.5893 9.10758 13.979 10.718 11.9996 10.718C10.0202 10.718 8.40988 9.10758 8.40988 7.1282ZM17.6406 20.4615H6.35859C5.65168 20.4615 5.07656 19.8864 5.07656 19.1795C5.07656 15.362 8.18219 12.2564 11.9996 12.2564C15.8171 12.2564 18.9227 15.362 18.9227 19.1795C18.9227 19.8864 18.3476 20.4615 17.6406 20.4615Z" fill="#7C69EF"/>
</g>
</g>
</g>
</svg>
