<svg width="24" height="24" viewBox="0 0 24 24" fill="none" xmlns="http://www.w3.org/2000/svg">
<g id="fi_2602490">
<g id="Group">
<path id="Vector" d="M6.375 24H20.4375C20.8258 24 21.1406 23.6852 21.1406 23.2969V3.5625C21.1406 3.17419 20.8258 2.85938 20.4375 2.85938H18.3281V0.703125C18.3281 0.314812 18.0133 0 17.625 0H3.5625C3.17419 0 2.85938 0.314812 2.85938 0.703125V20.4844C2.85938 20.8727 3.17419 21.1875 3.5625 21.1875H5.67188V23.2969C5.67188 23.6852 5.98669 24 6.375 24ZM18.3281 20.4844V4.26562H19.7344V22.5938H7.07812V21.1875H17.625C18.0133 21.1875 18.3281 20.8727 18.3281 20.4844ZM4.26562 19.7812V1.40625H16.9219V19.7812H4.26562Z" fill="#7C69EF"/>
<path id="Vector_2" d="M6.375 5.67188H10.5938C10.9821 5.67188 11.2969 5.35706 11.2969 4.96875C11.2969 4.58044 10.9821 4.26562 10.5938 4.26562H6.375C5.98669 4.26562 5.67188 4.58044 5.67188 4.96875C5.67188 5.35706 5.98669 5.67188 6.375 5.67188Z" fill="#7C69EF"/>
<path id="Vector_3" d="M14.8125 7.07812H6.375C5.98669 7.07812 5.67188 7.39294 5.67188 7.78125C5.67188 8.16956 5.98669 8.48438 6.375 8.48438H14.8125C15.2008 8.48438 15.5156 8.16956 15.5156 7.78125C15.5156 7.39294 15.2008 7.07812 14.8125 7.07812Z" fill="#7C69EF"/>
<path id="Vector_4" d="M14.8125 9.89062H6.375C5.98669 9.89062 5.67188 10.2054 5.67188 10.5938C5.67188 10.9821 5.98669 11.2969 6.375 11.2969H14.8125C15.2008 11.2969 15.5156 10.9821 15.5156 10.5938C15.5156 10.2054 15.2008 9.89062 14.8125 9.89062Z" fill="#7C69EF"/>
<path id="Vector_5" d="M14.8125 12.7031H6.375C5.98669 12.7031 5.67188 13.0179 5.67188 13.4062C5.67188 13.7946 5.98669 14.1094 6.375 14.1094H14.8125C15.2008 14.1094 15.5156 13.7946 15.5156 13.4062C15.5156 13.0179 15.2008 12.7031 14.8125 12.7031Z" fill="#7C69EF"/>
<path id="Vector_6" d="M14.8125 15.5156H12C11.6117 15.5156 11.2969 15.8304 11.2969 16.2188C11.2969 16.6071 11.6117 16.9219 12 16.9219H14.8125C15.2008 16.9219 15.5156 16.6071 15.5156 16.2188C15.5156 15.8304 15.2008 15.5156 14.8125 15.5156Z" fill="#7C69EF"/>
</g>
</g>
</svg>
