<svg width="16" height="16" viewBox="0 0 16 16" fill="none" xmlns="http://www.w3.org/2000/svg">
<g id="fi_6642200">
<g id="Group">
<path id="Vector" d="M13.4688 3.1875H10.7344V2.64062C10.7344 1.73598 9.99839 1 9.09375 1H6.90625C6.00161 1 5.26562 1.73598 5.26562 2.64062V3.1875H2.53125C2.22921 3.1875 1.98438 3.43234 1.98438 3.73438C1.98438 4.03641 2.22921 4.28125 2.53125 4.28125C2.8328 4.28125 3.07812 4.52658 3.07812 4.82812V13.3594C3.07812 14.264 3.81411 15 4.71875 15H11.2812C12.1859 15 12.9219 14.264 12.9219 13.3594V4.82812C12.9219 4.52658 13.1672 4.28125 13.4688 4.28125C13.7708 4.28125 14.0156 4.03641 14.0156 3.73438C14.0156 3.43234 13.7708 3.1875 13.4688 3.1875ZM6.35938 2.64062C6.35938 2.33908 6.6047 2.09375 6.90625 2.09375H9.09375C9.3953 2.09375 9.64062 2.33908 9.64062 2.64062V3.1875H6.35938V2.64062ZM11.8281 4.82812V13.3594C11.8281 13.6609 11.5828 13.9062 11.2812 13.9062H4.71875C4.4172 13.9062 4.17188 13.6609 4.17188 13.3594V4.82812C4.17188 4.63642 4.13852 4.45242 4.07781 4.28125H11.9222C11.8615 4.45242 11.8281 4.63642 11.8281 4.82812Z" fill="#E02424"/>
<path id="Vector_2" d="M5.8125 5.375C5.51046 5.375 5.26562 5.61984 5.26562 5.92188V12.2656C5.26562 12.5677 5.51046 12.8125 5.8125 12.8125C6.11454 12.8125 6.35938 12.5677 6.35938 12.2656V5.92188C6.35938 5.61984 6.11454 5.375 5.8125 5.375Z" fill="#E02424"/>
<path id="Vector_3" d="M8 5.375C7.69796 5.375 7.45312 5.61984 7.45312 5.92188V12.2656C7.45312 12.5677 7.69796 12.8125 8 12.8125C8.30204 12.8125 8.54688 12.5677 8.54688 12.2656V5.92188C8.54688 5.61984 8.30204 5.375 8 5.375Z" fill="#E02424"/>
<path id="Vector_4" d="M9.64062 5.92188V12.2656C9.64062 12.5677 9.88546 12.8125 10.1875 12.8125C10.4895 12.8125 10.7344 12.5677 10.7344 12.2656V5.92188C10.7344 5.61984 10.4895 5.375 10.1875 5.375C9.88546 5.375 9.64062 5.61984 9.64062 5.92188Z" fill="#E02424"/>
</g>
</g>
</svg>
