<svg width="14" height="14" viewBox="0 0 14 14" fill="none" xmlns="http://www.w3.org/2000/svg">
<g id="fi_6642200">
<g id="Group">
<path id="Vector" d="M11.7852 2.78906H9.39258V2.31055C9.39258 1.51899 8.74859 0.875 7.95703 0.875H6.04297C5.25141 0.875 4.60742 1.51899 4.60742 2.31055V2.78906H2.21484C1.95056 2.78906 1.73633 3.00329 1.73633 3.26758C1.73633 3.53186 1.95056 3.74609 2.21484 3.74609C2.4787 3.74609 2.69336 3.96076 2.69336 4.22461V11.6895C2.69336 12.481 3.33735 13.125 4.12891 13.125H9.87109C10.6627 13.125 11.3066 12.481 11.3066 11.6895V4.22461C11.3066 3.96076 11.5213 3.74609 11.7852 3.74609C12.0494 3.74609 12.2637 3.53186 12.2637 3.26758C12.2637 3.00329 12.0494 2.78906 11.7852 2.78906ZM5.56445 2.31055C5.56445 2.04669 5.77912 1.83203 6.04297 1.83203H7.95703C8.22088 1.83203 8.43555 2.04669 8.43555 2.31055V2.78906H5.56445V2.31055ZM10.3496 4.22461V11.6895C10.3496 11.9533 10.1349 12.168 9.87109 12.168H4.12891C3.86505 12.168 3.65039 11.9533 3.65039 11.6895V4.22461C3.65039 4.05687 3.6212 3.89587 3.56809 3.74609H10.4319C10.3788 3.89587 10.3496 4.05687 10.3496 4.22461Z" fill="#E02424"/>
<path id="Vector_2" d="M5.08594 4.70312C4.82165 4.70312 4.60742 4.91736 4.60742 5.18164V10.7324C4.60742 10.9967 4.82165 11.2109 5.08594 11.2109C5.35022 11.2109 5.56445 10.9967 5.56445 10.7324V5.18164C5.56445 4.91736 5.35022 4.70312 5.08594 4.70312Z" fill="#E02424"/>
<path id="Vector_3" d="M7 4.70312C6.73572 4.70312 6.52148 4.91736 6.52148 5.18164V10.7324C6.52148 10.9967 6.73572 11.2109 7 11.2109C7.26428 11.2109 7.47852 10.9967 7.47852 10.7324V5.18164C7.47852 4.91736 7.26428 4.70312 7 4.70312Z" fill="#E02424"/>
<path id="Vector_4" d="M8.43555 5.18164V10.7324C8.43555 10.9967 8.64978 11.2109 8.91406 11.2109C9.17835 11.2109 9.39258 10.9967 9.39258 10.7324V5.18164C9.39258 4.91736 9.17835 4.70312 8.91406 4.70312C8.64978 4.70312 8.43555 4.91736 8.43555 5.18164Z" fill="#E02424"/>
</g>
</g>
</svg>
