<svg width="20" height="20" viewBox="0 0 20 20" fill="none" xmlns="http://www.w3.org/2000/svg">
<g id="fi_2008281" clip-path="url(#clip0_65_1619)">
<path id="Vector" d="M16.9452 4.15109L13.1787 0.587773C12.7781 0.20875 12.2537 0 11.7022 0H4.53125C3.3466 0 2.38281 0.963789 2.38281 2.14844V17.8516C2.38281 19.0362 3.3466 20 4.53125 20H15.4688C16.6534 20 17.6172 19.0362 17.6172 17.8516V5.7118C17.6172 5.12395 17.3723 4.55508 16.9452 4.15109ZM15.807 4.6875H12.8906C12.7829 4.6875 12.6953 4.59988 12.6953 4.49219V1.74363L15.807 4.6875ZM15.4688 18.8281H4.53125C3.99277 18.8281 3.55469 18.39 3.55469 17.8516V2.14844C3.55469 1.60996 3.99277 1.17188 4.53125 1.17188H11.5234V4.49219C11.5234 5.24605 12.1368 5.85938 12.8906 5.85938H16.4453V17.8516C16.4453 18.39 16.0072 18.8281 15.4688 18.8281Z" fill="#7C69EF"/>
<path id="Vector_2" d="M6.48438 5.27344V6.44531C6.48438 6.76891 6.74672 7.03125 7.07031 7.03125C7.39391 7.03125 7.65625 6.76891 7.65625 6.44531V5.27344H8.82812C9.15172 5.27344 9.41406 5.01109 9.41406 4.6875C9.41406 4.36391 9.15172 4.10156 8.82812 4.10156H7.65625V2.92969C7.65625 2.60609 7.39391 2.34375 7.07031 2.34375C6.74672 2.34375 6.48438 2.60609 6.48438 2.92969V4.10156H5.3125C4.98891 4.10156 4.72656 4.36391 4.72656 4.6875C4.72656 5.01109 4.98891 5.27344 5.3125 5.27344H6.48438Z" fill="#7C69EF"/>
<path id="Vector_3" d="M14.1797 8.98438H5.58594C5.26234 8.98438 5 9.24672 5 9.57031C5 9.89391 5.26234 10.1562 5.58594 10.1562H14.1797C14.5033 10.1562 14.7656 9.89391 14.7656 9.57031C14.7656 9.24672 14.5033 8.98438 14.1797 8.98438Z" fill="#7C69EF"/>
<path id="Vector_4" d="M14.1797 12.1094H5.58594C5.26234 12.1094 5 12.3717 5 12.6953C5 13.0189 5.26234 13.2812 5.58594 13.2812H14.1797C14.5033 13.2812 14.7656 13.0189 14.7656 12.6953C14.7656 12.3717 14.5033 12.1094 14.1797 12.1094Z" fill="#7C69EF"/>
<path id="Vector_5" d="M8.42656 15.2344H5.58594C5.26234 15.2344 5 15.4967 5 15.8203C5 16.1439 5.26234 16.4062 5.58594 16.4062H8.42656C8.75016 16.4062 9.0125 16.1439 9.0125 15.8203C9.0125 15.4967 8.75016 15.2344 8.42656 15.2344Z" fill="#7C69EF"/>
</g>
<defs>
<clipPath id="clip0_65_1619">
<rect width="20" height="20" fill="white"/>
</clipPath>
</defs>
</svg>
