<svg width="16" height="16" viewBox="0 0 16 16" fill="none" xmlns="http://www.w3.org/2000/svg">
<g id="fi_84380" clip-path="url(#clip0_323_5085)">
<g id="Group">
<path id="Vector" d="M15.3178 0.539231L15.2985 0.521666C14.9303 0.185278 14.4529 0 13.9544 0C13.3955 0 12.8588 0.236596 12.482 0.649068L5.35752 8.44898C5.29258 8.52006 5.24333 8.60394 5.21288 8.69525L4.37514 11.2067C4.27828 11.497 4.32689 11.8181 4.50516 12.0656C4.68484 12.315 4.97431 12.4639 5.27956 12.4639C5.41159 12.4639 5.54069 12.4368 5.66309 12.3832L8.08867 11.3221C8.17686 11.2835 8.25597 11.2269 8.32086 11.1558L15.4454 3.35591C16.1868 2.54431 16.1296 1.28085 15.3178 0.539231ZM5.98022 10.7427L6.4718 9.26906L6.51326 9.22366L7.44497 10.0746L7.40351 10.1201L5.98022 10.7427ZM14.4296 2.42801L8.37287 9.05888L7.44116 8.20789L13.4979 1.57697C13.6164 1.44727 13.7785 1.37582 13.9544 1.37582C14.1087 1.37582 14.2565 1.43324 14.3709 1.53771L14.3901 1.55528C14.6416 1.78499 14.6593 2.17651 14.4296 2.42801Z" fill="#12B76A"/>
<path id="Vector_2" d="M13.9352 6.34633C13.5553 6.34633 13.2473 6.65433 13.2473 7.03424V12.8745C13.2473 13.8391 12.4625 14.6239 11.4979 14.6239H3.16043C2.19575 14.6239 1.41098 13.8391 1.41098 12.8745V4.60477C1.41098 3.64013 2.1958 2.85532 3.16043 2.85532H9.19511C9.57502 2.85532 9.88303 2.54731 9.88303 2.1674C9.88303 1.78749 9.57502 1.47949 9.19511 1.47949H3.16043C1.43712 1.47949 0.0351562 2.8815 0.0351562 4.60477V12.8744C0.0351562 14.5977 1.43717 15.9997 3.16043 15.9997H11.4978C13.2211 15.9997 14.6231 14.5977 14.6231 12.8744V7.03424C14.6232 6.65433 14.3152 6.34633 13.9352 6.34633Z" fill="#12B76A"/>
</g>
</g>
<defs>
<clipPath id="clip0_323_5085">
<rect width="16" height="16" fill="white"/>
</clipPath>
</defs>
</svg>
