<svg width="14" height="14" viewBox="0 0 14 14" fill="none" xmlns="http://www.w3.org/2000/svg">
<g id="fi_84380" clip-path="url(#clip0_413_101322)">
<g id="Group">
<path id="Vector" d="M13.4019 0.471827L13.385 0.456458C13.0628 0.162118 12.6451 0 12.2088 0C11.7198 0 11.2503 0.207021 10.9206 0.567934L4.68661 7.39286C4.62979 7.45505 4.58669 7.52845 4.56005 7.60834L3.82703 9.80584C3.74228 10.0599 3.78481 10.3409 3.94079 10.5574C4.09801 10.7756 4.3513 10.9059 4.61839 10.9059C4.73392 10.9059 4.84688 10.8822 4.95399 10.8353L7.07637 9.90681C7.15353 9.87306 7.22275 9.8235 7.27954 9.7613L13.5135 2.93642C14.1622 2.22627 14.1122 1.12074 13.4019 0.471827ZM5.23147 9.39991L5.66161 8.11043L5.69788 8.0707L6.51313 8.81532L6.47685 8.85505L5.23147 9.39991ZM12.6247 2.12451L7.32504 7.92652L6.5098 7.1819L11.8094 1.37985C11.9131 1.26637 12.0549 1.20385 12.2089 1.20385C12.3439 1.20385 12.4732 1.25409 12.5733 1.3455L12.5901 1.36087C12.8102 1.56187 12.8257 1.90444 12.6247 2.12451Z" fill="#12B76A"/>
<path id="Vector_2" d="M12.1928 5.5534C11.8604 5.5534 11.5909 5.82291 11.5909 6.15533V11.2655C11.5909 12.1096 10.9042 12.7963 10.0602 12.7963H2.76489C1.92079 12.7963 1.23412 12.1096 1.23412 11.2655V4.02954C1.23412 3.18548 1.92083 2.49877 2.76489 2.49877H8.04524C8.37766 2.49877 8.64716 2.22927 8.64716 1.89684C8.64716 1.56442 8.37766 1.29492 8.04524 1.29492H2.76489C1.25699 1.29492 0.0302734 2.52168 0.0302734 4.02954V11.2655C0.0302734 12.7733 1.25703 14.0001 2.76489 14.0001H10.0601C11.568 14.0001 12.7947 12.7733 12.7947 11.2655V6.15533C12.7948 5.82291 12.5253 5.5534 12.1928 5.5534Z" fill="#12B76A"/>
</g>
</g>
<defs>
<clipPath id="clip0_413_101322">
<rect width="14" height="14" fill="white"/>
</clipPath>
</defs>
</svg>
