<svg width="24" height="24" viewBox="0 0 24 24" fill="none" xmlns="http://www.w3.org/2000/svg">
<g id="fi_3281306" clip-path="url(#clip0_7_29493)">
<g id="Group">
<g id="Group_2">
<path id="Vector" d="M2.32324 22.1155L4.04721 22.5373L5.77113 22.1155V21.27L4.04721 20.8481L2.32324 21.27V22.1155Z" fill="#F9CF58"/>
<path id="Vector_2" d="M7.625 22.1155L9.34897 22.5373L11.0729 22.1155V21.27L9.34897 20.8481L7.625 21.27V22.1155Z" fill="#FFAC3E"/>
<path id="Vector_3" d="M12.9268 22.1155L14.6507 22.5373L16.3747 22.1155V21.27L14.6507 20.8481L12.9268 21.27V22.1155Z" fill="#82D361"/>
<path id="Vector_4" d="M18.2285 22.1155L19.9525 22.5373L21.6765 22.1155V21.27L19.9525 20.8481L18.2285 21.27V22.1155Z" fill="#6CC4FF"/>
<path id="Vector_5" d="M5.77113 21.2698H2.32324V17.8588C2.32324 17.5994 2.53352 17.3892 2.79293 17.3892H5.30154C5.56095 17.3892 5.77123 17.5994 5.77123 17.8588V21.2698H5.77113Z" fill="#FFE27A"/>
<path id="Vector_6" d="M11.0729 21.2698H7.625V15.2954C7.625 15.036 7.83528 14.8257 8.09469 14.8257H10.6032C10.8627 14.8257 11.0729 15.036 11.0729 15.2954V21.2698Z" fill="#FFBA57"/>
<path id="Vector_7" d="M16.3747 21.2699H12.9268V12.7319C12.9268 12.4725 13.137 12.2622 13.3964 12.2622H15.9051C16.1645 12.2622 16.3747 12.4725 16.3747 12.7319V21.2699H16.3747Z" fill="#98DB7C"/>
<path id="Vector_8" d="M21.6765 21.27H18.2285V10.1684C18.2285 9.90901 18.4388 9.69873 18.6982 9.69873H21.2068C21.4662 9.69873 21.6765 9.90901 21.6765 10.1684L21.6765 21.27Z" fill="#8BCAFF"/>
<path id="Vector_9" d="M19.7793 5.51363L19.3656 1.39215C19.3512 1.24876 19.2122 1.15201 19.0728 1.18834L15.0613 2.23309C14.8672 2.28367 14.8218 2.53862 14.9865 2.65313L16.0344 3.38171C16.0344 3.38171 13.3469 8.62276 3.63672 11.6194V11.8813C6.30095 11.8959 13.2655 11.1339 17.6335 5.26431L18.3633 5.00096L19.4116 5.72987C19.5762 5.84434 19.7994 5.71313 19.7793 5.51363Z" fill="#FF4755"/>
<g id="Group_3">
<g id="Group_4">
<g id="Group_5">
<path id="Vector_10" d="M17.9418 4.70404C17.8373 4.63022 17.6935 4.65412 17.6172 4.75678C13.2491 10.6264 7.64525 11.3656 3.79485 11.6331C3.73813 11.637 3.68624 11.6313 3.63889 11.6187L3.63547 11.6197C3.13883 11.7764 3.27796 12.5145 3.79747 12.4783C7.68838 12.2076 14.1111 10.8181 18.3624 5.00118L17.9418 4.70404Z" fill="#FC2B3A"/>
</g>
</g>
</g>
</g>
<path id="Vector_11" d="M23.6477 22.8198H0.352266C0.157734 22.8198 0 22.662 0 22.4675C0 22.273 0.157687 22.1152 0.352266 22.1152H23.6478C23.8423 22.1152 24 22.273 24 22.4675C24 22.662 23.8423 22.8198 23.6477 22.8198Z" fill="#407093"/>
</g>
</g>
<defs>
<clipPath id="clip0_7_29493">
<rect width="24" height="24" fill="white"/>
</clipPath>
</defs>
</svg>
