<svg width="24" height="24" viewBox="0 0 24 24" fill="none" xmlns="http://www.w3.org/2000/svg">
<g id="fi_3723458" clip-path="url(#clip0_7_29511)">
<g id="Group">
<path id="Vector" d="M23.5742 0.740384C23.4006 0.393088 22.9782 0.252275 22.6309 0.425947L21.1875 1.14763L21.8164 2.40538L23.2598 1.6837C23.6071 1.51003 23.7479 1.08768 23.5742 0.740384Z" fill="#61CE5B"/>
<path id="Vector_2" d="M15.7763 3.88946L8.507 12.9762L3.5105 16.0709C3.30317 16.1993 3.16761 16.4223 3.16414 16.6662C3.15626 17.2233 3.76573 17.5663 4.23701 17.2745L9.40203 14.076C9.43615 14.0549 9.46639 14.0281 9.49147 13.9967L16.7298 4.94889L21.8019 2.41281C22.0388 2.29436 22.1993 2.05693 22.2047 1.79209C22.2156 1.26076 21.6594 0.911871 21.1873 1.14789L15.8936 3.79464C15.8481 3.81737 15.8081 3.84971 15.7763 3.88946Z" fill="#94E368"/>
<path id="Vector_3" d="M22.7752 8.39683L21.3496 8.75327L21.6907 10.1175L23.1163 9.76108C23.4293 9.68285 23.6489 9.4016 23.6489 9.07896C23.6488 8.6215 23.2189 8.28588 22.7752 8.39683Z" fill="#9255E3"/>
<path id="Vector_4" d="M15.9232 10.161L8.68051 17.4037L3.67473 18.9538C3.38214 19.0444 3.1705 19.3088 3.16422 19.615C3.15437 20.0963 3.61778 20.443 4.07481 20.3015L9.34576 18.6699C9.40033 18.653 9.45001 18.6231 9.49042 18.5827L16.7111 11.3619L21.669 10.1224C21.9896 10.0422 22.2267 9.75694 22.2228 9.42642C22.2176 8.97333 21.7903 8.64253 21.3492 8.75278L16.0866 10.0686C16.0247 10.084 15.9683 10.116 15.9232 10.161Z" fill="#AE7DF0"/>
<path id="Vector_5" d="M23.6484 21.8906H2.10938V0.351562C2.10938 0.157359 1.95197 0 1.75781 0H0.351562C0.157406 0 0 0.157359 0 0.351562C0 0.545766 0.157406 0.703125 0.351562 0.703125H1.40625V1.82423H1.05469C0.860531 1.82423 0.703125 1.98159 0.703125 2.1758C0.703125 2.37 0.860531 2.52736 1.05469 2.52736H1.40625V3.64842H0.351562C0.157406 3.64842 0 3.80578 0 3.99998C0 4.19419 0.157406 4.35155 0.351562 4.35155H1.40625V5.47266H1.05469C0.860531 5.47266 0.703125 5.63002 0.703125 5.82422C0.703125 6.01842 0.860531 6.17578 1.05469 6.17578H1.40625V7.29689H0.351562C0.157406 7.29689 0 7.45425 0 7.64845C0 7.84266 0.157406 8.00002 0.351562 8.00002H1.40625V9.12108H1.05469C0.860531 9.12108 0.703125 9.27844 0.703125 9.47264C0.703125 9.66684 0.860531 9.8242 1.05469 9.8242H1.40625V10.9453H0.351562C0.157406 10.9453 0 11.1027 0 11.2969C0 11.4911 0.157406 11.6484 0.351562 11.6484H1.40625V12.7695H1.05469C0.860531 12.7695 0.703125 12.9269 0.703125 13.1211C0.703125 13.3153 0.860531 13.4727 1.05469 13.4727H1.40625V14.5937H0.351562C0.157406 14.5937 0 14.7511 0 14.9453C0 15.1395 0.157406 15.2969 0.351562 15.2969H1.40625V16.418H1.05469C0.860531 16.418 0.703125 16.5753 0.703125 16.7695C0.703125 16.9637 0.860531 17.1211 1.05469 17.1211H1.40625V18.2422H0.351562C0.157406 18.2422 0 18.3996 0 18.5938C0 18.788 0.157406 18.9453 0.351562 18.9453H1.40625V20.0664H1.05469C0.860531 20.0664 0.703125 20.2238 0.703125 20.418C0.703125 20.6122 0.860531 20.7695 1.05469 20.7695H1.40625V21.8906H0.351562C0.157406 21.8906 0 22.048 0 22.2422C0 22.4364 0.157406 22.5938 0.351562 22.5938H1.40625V23.6484C1.40625 23.8426 1.56366 24 1.75781 24C1.95197 24 2.10938 23.8426 2.10938 23.6484V22.5938H3.23048V22.9453C3.23048 23.1395 3.38789 23.2969 3.58205 23.2969C3.7762 23.2969 3.93361 23.1395 3.93361 22.9453V22.5938H5.05472V23.6484C5.05472 23.8426 5.21212 24 5.40628 24C5.60044 24 5.75784 23.8426 5.75784 23.6484V22.5938H6.87895V22.9453C6.87895 23.1395 7.03636 23.2969 7.23052 23.2969C7.42467 23.2969 7.58208 23.1395 7.58208 22.9453V22.5938H8.70319V23.6484C8.70319 23.8426 8.86059 24 9.05475 24C9.24891 24 9.40631 23.8426 9.40631 23.6484V22.5938H10.5274V22.9453C10.5274 23.1395 10.6848 23.2969 10.879 23.2969C11.0731 23.2969 11.2305 23.1395 11.2305 22.9453V22.5938H12.3516V23.6484C12.3516 23.8426 12.5089 24 12.7031 24C12.8973 24 13.0547 23.8426 13.0547 23.6484V22.5938H14.1758V22.9453C14.1758 23.1395 14.3332 23.2969 14.5274 23.2969C14.7216 23.2969 14.8789 23.1395 14.8789 22.9453V22.5938H16V23.6484C16 23.8426 16.1573 24 16.3515 24C16.5457 24 16.7031 23.8426 16.7031 23.6484V22.5938H17.8242V22.9453C17.8242 23.1395 17.9816 23.2969 18.1758 23.2969C18.37 23.2969 18.5273 23.1395 18.5273 22.9453V22.5938H19.6485V23.6484C19.6485 23.8426 19.8058 24 20 24C20.1942 24 20.3516 23.8426 20.3516 23.6484V22.5938H21.4726V22.9453C21.4726 23.1395 21.63 23.2969 21.8242 23.2969C22.0184 23.2969 22.1758 23.1395 22.1758 22.9453V22.5938H23.2969V23.6484C23.2969 23.8426 23.4542 24 23.6484 24C23.8426 24 24 23.8426 24 23.6484V22.2422C24 22.048 23.8426 21.8906 23.6484 21.8906Z" fill="#ACD5DF"/>
</g>
</g>
<defs>
<clipPath id="clip0_7_29511">
<rect width="24" height="24" fill="white"/>
</clipPath>
</defs>
</svg>
