<svg width="24" height="24" viewBox="0 0 24 24" fill="none" xmlns="http://www.w3.org/2000/svg">
<g id="fi_12538838" clip-path="url(#clip0_737_2751)">
<g id="Group">
<path id="Vector" d="M23.6483 20.5614L21.6511 19.4083V14.648C21.6511 14.3968 21.5171 14.1647 21.2996 14.0391L17.1771 11.659V6.89884C17.1771 6.64764 17.0431 6.41552 16.8256 6.28994L12.7031 3.90981V1.60352C12.7031 1.2152 12.3883 0.900391 12 0.900391C11.6117 0.900391 11.2969 1.2152 11.2969 1.60352V3.90981L7.17446 6.28989C6.95691 6.41547 6.82289 6.64759 6.82289 6.8988V11.659L2.70043 14.0391C2.48288 14.1647 2.34886 14.3968 2.34886 14.648V19.4082L0.35166 20.5614C0.0153785 20.7556 -0.0998402 21.1856 0.094316 21.5219C0.288472 21.8582 0.718504 21.9734 1.05478 21.7792L3.05203 20.6261L7.17446 23.0062C7.392 23.1318 7.66003 23.1318 7.87758 23.0062L12 20.6261L16.1224 23.0062C16.34 23.1318 16.608 23.1318 16.8256 23.0062L20.948 20.6261L22.9452 21.7792C23.2815 21.9734 23.7115 21.8582 23.9057 21.5219C24.0998 21.1856 23.9846 20.7556 23.6483 20.5614ZM11.2969 19.4082L7.52602 21.5853L3.75511 19.4082V15.054L7.52602 12.8769L11.2969 15.054V19.4082ZM8.22914 11.659V7.30478L12 5.12767L15.7709 7.30478V11.659L12 13.8362L8.22914 11.659ZM20.2449 19.4082L16.474 21.5853L12.7031 19.4082V15.054L16.474 12.8769L20.2449 15.054V19.4082Z" fill="#344054"/>
</g>
</g>
<defs>
<clipPath id="clip0_737_2751">
<rect width="24" height="24" fill="white"/>
</clipPath>
</defs>
</svg>
