<svg width="16" height="16" viewBox="0 0 16 16" fill="none" xmlns="http://www.w3.org/2000/svg">
<g id="fi_2040460">
<path id="Vector" d="M11.0837 10.4583C11.0837 10.8035 10.8039 11.0833 10.4587 11.0833H5.54199C5.1968 11.0833 4.91699 10.8035 4.91699 10.4583C4.91699 10.1132 5.1968 9.83334 5.54199 9.83334H10.4587C10.8039 9.83334 11.0837 10.1132 11.0837 10.4583ZM10.4587 6.14584H5.54199C5.1968 6.14584 4.91699 6.42566 4.91699 6.77084C4.91699 7.11603 5.1968 7.39584 5.54199 7.39584H10.4587C10.8039 7.39584 11.0837 7.11603 11.0837 6.77084C11.0837 6.42566 10.8039 6.14584 10.4587 6.14584ZM14.779 2.5V13.5C14.779 14.8785 13.6575 16 12.279 16H3.72168C2.34318 16 1.22168 14.8785 1.22168 13.5V2.5C1.22168 1.1215 2.34318 0 3.72168 0H12.279C13.6575 0 14.779 1.1215 14.779 2.5ZM6.16699 1.83334C6.16699 2.17797 6.44737 2.45834 6.79199 2.45834H9.20868C9.5533 2.45834 9.83368 2.17797 9.83368 1.83334V1.25H6.16699V1.83334ZM13.529 2.5C13.529 1.81075 12.9682 1.25 12.279 1.25H11.0837V1.83334C11.0837 2.86722 10.2426 3.70834 9.20868 3.70834H6.79199C5.75812 3.70834 4.91699 2.86722 4.91699 1.83334V1.25H3.72168C3.03243 1.25 2.47168 1.81075 2.47168 2.5V13.5C2.47168 14.1892 3.03243 14.75 3.72168 14.75H12.279C12.9682 14.75 13.529 14.1892 13.529 13.5V2.5Z" fill="#7C69EF"/>
</g>
</svg>
