<svg width="24" height="24" viewBox="0 0 24 24" fill="none" xmlns="http://www.w3.org/2000/svg">
<g id="fi_603148" clip-path="url(#clip0_9_16970)">
<path id="Vector" d="M23.2969 11.2969H13.4531C13.0645 11.2969 12.75 10.9824 12.75 10.5938V0.703125C12.75 0.314484 13.0645 0 13.4531 0C19.269 0 24 4.77787 24 10.5938C24 10.9824 23.6855 11.2969 23.2969 11.2969Z" fill="#FE9923"/>
<path id="Vector_2" d="M14.7609 22.425L11.3438 13.2796V3.5625C11.3438 3.1687 11.0344 2.85938 10.6406 2.85938C4.81875 2.85938 0 7.58438 0 13.4062C0 19.2281 4.81875 24 10.6406 24C10.8796 24 11.1047 23.9859 11.3438 23.9718C12.3703 23.9156 13.3687 23.6906 14.3391 23.3249C14.7047 23.1984 14.8875 22.7906 14.7609 22.425Z" fill="#FD003A"/>
<path id="Vector_3" d="M16.9098 23.3738C16.8103 23.3738 16.7114 23.3525 16.6194 23.3106C16.4491 23.2337 16.3173 23.0923 16.2513 22.9178L12.7948 13.6534C12.7137 13.4371 12.744 13.1954 12.8751 13.0059C13.007 12.8164 13.2226 12.7031 13.4533 12.7031H23.297C23.6857 12.7031 24.0002 13.0176 24.0002 13.4062C24.0002 17.7733 21.2501 21.7883 17.1577 23.3285C17.0774 23.3587 16.9936 23.3738 16.9098 23.3738Z" fill="#1689FC"/>
<path id="Vector_4" d="M14.3391 23.3251C13.3687 23.6907 12.3703 23.9157 11.3438 23.972V13.2798L14.7609 22.4251C14.8875 22.7907 14.7047 23.1985 14.3391 23.3251Z" fill="#E50027"/>
</g>
<defs>
<clipPath id="clip0_9_16970">
<rect width="24" height="24" fill="white"/>
</clipPath>
</defs>
</svg>
