<svg width="24" height="24" viewBox="0 0 24 24" fill="none" xmlns="http://www.w3.org/2000/svg">
<g id="fi_2068984" clip-path="url(#clip0_194_866)">
<path id="Vector" d="M9.89049 4.96861C9.89049 3.34688 8.0963 2.23462 6.51572 3.24567C6.18858 3.45492 6.09305 3.88973 6.30235 4.21688C6.5116 4.54392 6.94636 4.6395 7.27355 4.43025C7.91907 4.01719 8.48424 4.4558 8.48424 4.96861C8.48424 5.31708 8.22483 5.61637 7.88082 5.6648C7.42313 5.7292 7.07799 6.12802 7.07799 6.59241V7.03111C7.07799 7.41942 7.3928 7.73423 7.78111 7.73423C8.16943 7.73423 8.48424 7.41942 8.48424 7.03111V6.95738C9.30891 6.66422 9.89049 5.87138 9.89049 4.96861Z" fill="#475467"/>
<path id="Vector_2" d="M7.73438 9.89039C8.1227 9.89039 8.4375 9.57559 8.4375 9.18727C8.4375 8.79894 8.1227 8.48414 7.73438 8.48414C7.34605 8.48414 7.03125 8.79894 7.03125 9.18727C7.03125 9.57559 7.34605 9.89039 7.73438 9.89039Z" fill="#475467"/>
<path id="Vector_3" d="M21.8906 9.89039H15.5346L15.5185 2.10497C15.5161 0.944297 14.5699 0 13.4092 0H2.10938C0.946266 0 0 0.946219 0 2.10933V10.6403C0 11.8034 0.946266 12.7497 2.10938 12.7497H3.5625V14.1559C3.5625 14.734 4.22452 15.0656 4.6875 14.7184L7.31156 12.7504L8.48438 12.7539V20.4839C8.48438 21.6469 9.43064 22.5932 10.5938 22.5932H15.3496L18.0137 23.9252C18.4798 24.1582 19.0312 23.8188 19.0312 23.2963V22.5932H21.8906C23.0537 22.5932 24 21.647 24 20.4839V11.9997C24 10.8366 23.0537 9.89039 21.8906 9.89039ZM7.07812 11.3435C6.92602 11.3435 6.77798 11.3928 6.65625 11.4841L4.96875 12.7497V12.0465C4.96875 11.6582 4.65394 11.3434 4.26562 11.3434H2.10938C1.72167 11.3434 1.40625 11.028 1.40625 10.6403V2.10933C1.40625 1.72163 1.72167 1.4062 2.10938 1.4062H13.4092C13.7961 1.4062 14.1115 1.72097 14.1123 2.10783C14.131 11.187 14.1328 10.6355 14.1249 10.74C14.0844 11.098 13.7788 11.3651 13.4247 11.3626C13.4205 11.3626 7.08234 11.3435 7.07812 11.3435ZM22.5938 20.4839C22.5938 20.8716 22.2783 21.187 21.8906 21.187H18.3281C17.9398 21.187 17.625 21.5018 17.625 21.8901V22.1587L15.8301 21.2612C15.7324 21.2124 15.6248 21.187 15.5156 21.187H10.5938C10.206 21.187 9.89062 20.8716 9.89062 20.4839V12.7582C9.90136 12.7582 13.4162 12.7688 13.427 12.7688C14.3831 12.7688 15.1729 12.1379 15.4383 11.2965H21.8906C22.2783 11.2965 22.5938 11.612 22.5938 11.9997V20.4839Z" fill="#475467"/>
<path id="Vector_4" d="M20.4375 14.109H12C11.6117 14.109 11.2969 14.4238 11.2969 14.8121C11.2969 15.2004 11.6117 15.5153 12 15.5153H20.4375C20.8258 15.5153 21.1406 15.2004 21.1406 14.8121C21.1406 14.4238 20.8258 14.109 20.4375 14.109Z" fill="#475467"/>
<path id="Vector_5" d="M20.4375 16.9215H12C11.6117 16.9215 11.2969 17.2363 11.2969 17.6246C11.2969 18.0129 11.6117 18.3277 12 18.3277H20.4375C20.8258 18.3277 21.1406 18.0129 21.1406 17.6246C21.1406 17.2363 20.8258 16.9215 20.4375 16.9215Z" fill="#475467"/>
</g>
<defs>
<clipPath id="clip0_194_866">
<rect width="24" height="24" fill="white"/>
</clipPath>
</defs>
</svg>
