<svg width="20" height="20" viewBox="0 0 20 20" fill="none" xmlns="http://www.w3.org/2000/svg">
<g id="fi_2602490">
<g id="Group">
<path id="Vector" d="M5.3125 20H17.0312C17.3548 20 17.6172 19.7377 17.6172 19.4141V2.96875C17.6172 2.64516 17.3548 2.38281 17.0312 2.38281H15.2734V0.585938C15.2734 0.262344 15.0111 0 14.6875 0H2.96875C2.64516 0 2.38281 0.262344 2.38281 0.585938V17.0703C2.38281 17.3939 2.64516 17.6562 2.96875 17.6562H4.72656V19.4141C4.72656 19.7377 4.98891 20 5.3125 20ZM15.2734 17.0703V3.55469H16.4453V18.8281H5.89844V17.6562H14.6875C15.0111 17.6562 15.2734 17.3939 15.2734 17.0703ZM3.55469 16.4844V1.17188H14.1016V16.4844H3.55469Z" fill="#667085"/>
<path id="Vector_2" d="M5.3125 4.72656H8.82812C9.15172 4.72656 9.41406 4.46422 9.41406 4.14062C9.41406 3.81703 9.15172 3.55469 8.82812 3.55469H5.3125C4.98891 3.55469 4.72656 3.81703 4.72656 4.14062C4.72656 4.46422 4.98891 4.72656 5.3125 4.72656Z" fill="#667085"/>
<path id="Vector_3" d="M12.3438 5.89844H5.3125C4.98891 5.89844 4.72656 6.16078 4.72656 6.48438C4.72656 6.80797 4.98891 7.07031 5.3125 7.07031H12.3438C12.6673 7.07031 12.9297 6.80797 12.9297 6.48438C12.9297 6.16078 12.6673 5.89844 12.3438 5.89844Z" fill="#667085"/>
<path id="Vector_4" d="M12.3438 8.24219H5.3125C4.98891 8.24219 4.72656 8.50453 4.72656 8.82812C4.72656 9.15172 4.98891 9.41406 5.3125 9.41406H12.3438C12.6673 9.41406 12.9297 9.15172 12.9297 8.82812C12.9297 8.50453 12.6673 8.24219 12.3438 8.24219Z" fill="#667085"/>
<path id="Vector_5" d="M12.3438 10.5859H5.3125C4.98891 10.5859 4.72656 10.8483 4.72656 11.1719C4.72656 11.4955 4.98891 11.7578 5.3125 11.7578H12.3438C12.6673 11.7578 12.9297 11.4955 12.9297 11.1719C12.9297 10.8483 12.6673 10.5859 12.3438 10.5859Z" fill="#667085"/>
<path id="Vector_6" d="M12.3438 12.9297H10C9.67641 12.9297 9.41406 13.192 9.41406 13.5156C9.41406 13.8392 9.67641 14.1016 10 14.1016H12.3438C12.6673 14.1016 12.9297 13.8392 12.9297 13.5156C12.9297 13.192 12.6673 12.9297 12.3438 12.9297Z" fill="#667085"/>
</g>
</g>
</svg>
