<svg width="24" height="24" viewBox="0 0 24 24" fill="none" xmlns="http://www.w3.org/2000/svg">
<g id="settings (3) 1" clip-path="url(#clip0_737_2723)">
<g id="Group">
<g id="Group_2">
<path id="Vector" d="M12 4.26562C7.73527 4.26562 4.26562 7.73527 4.26562 12C4.26562 16.2555 7.72753 19.7344 12 19.7344C16.2647 19.7344 19.7344 16.2647 19.7344 12C19.7344 7.73527 16.2647 4.26562 12 4.26562ZM12 18.3281C10.7077 18.3281 9.50489 17.9385 8.50219 17.2709C8.68036 15.498 10.181 14.1094 12 14.1094C13.8191 14.1094 15.3197 15.4987 15.4964 17.2718C14.494 17.9388 13.2917 18.3281 12 18.3281ZM9.89062 10.5938C9.89062 9.43064 10.8369 8.48438 12 8.48438C13.1631 8.48438 14.1094 9.43064 14.1094 10.5938C14.1094 11.7569 13.1631 12.7031 12 12.7031C10.8369 12.7031 9.89062 11.7569 9.89062 10.5938ZM16.7149 16.2159C16.3326 14.9375 15.4435 13.8758 14.2816 13.2652C15.036 12.6199 15.5156 11.662 15.5156 10.5938C15.5156 8.65523 13.9385 7.07812 12 7.07812C10.0615 7.07812 8.48438 8.65523 8.48438 10.5938C8.48438 11.662 8.96391 12.6198 9.71827 13.2651C8.55642 13.8756 7.66716 14.9368 7.28428 16.215C6.28219 15.095 5.67188 13.6176 5.67188 12C5.67188 8.51067 8.51067 5.67188 12 5.67188C15.4893 5.67188 18.3281 8.51067 18.3281 12C18.3281 13.618 17.7175 15.0958 16.7149 16.2159Z" fill="#344054"/>
</g>
</g>
<g id="Group_3">
<g id="Group_4">
<path id="Vector_2" d="M23.5135 9.9248L22.2503 9.51572C21.9939 8.45208 21.5753 7.443 21.0019 6.50653L21.5783 5.35378C21.7136 5.08308 21.6605 4.75612 21.4465 4.54219L19.4578 2.55352C19.2439 2.33953 18.9171 2.28642 18.6462 2.4218L17.4931 2.99827C16.6389 2.47688 15.7129 2.08181 14.7315 1.82025L14.0385 0.395578C13.9208 0.153563 13.6753 0 13.4062 0H10.5938C10.3247 0 10.0792 0.153563 9.96145 0.395578L9.2685 1.82025C8.28712 2.08186 7.36106 2.47692 6.50691 2.99827L5.35383 2.4218C5.08312 2.28642 4.75622 2.33953 4.54223 2.55352L2.55352 4.54219C2.33953 4.75617 2.28647 5.08312 2.42175 5.35378L2.99827 6.50681C2.47688 7.36097 2.08186 8.28694 1.82025 9.26845L0.395578 9.96145C0.153563 10.0792 0 10.3246 0 10.5938V13.4062C0 13.6754 0.153563 13.9208 0.395578 14.0385L1.82048 14.7316C2.05809 15.6187 2.4113 16.4692 2.87372 17.268L2.38359 18.7382C2.29936 18.9908 2.36512 19.2694 2.55347 19.4577L4.54219 21.4465C4.73048 21.6348 5.00916 21.7005 5.26172 21.6164L6.73172 21.1263C7.61372 21.6382 8.54723 22.0149 9.51562 22.25L9.9248 23.5135C10.0187 23.8035 10.2889 24 10.5938 24H13.4062C13.7111 24 13.9813 23.8035 14.0752 23.5135L14.4844 22.25C15.4527 22.0149 16.3862 21.6382 17.2683 21.1264L18.7383 21.6164C18.9908 21.7006 19.2695 21.6348 19.4578 21.4465L21.4465 19.4578C21.6349 19.2694 21.7006 18.9909 21.6164 18.7382L21.1264 17.2683C21.6382 16.3864 22.0149 15.4529 22.25 14.4845L23.5135 14.0753C23.8035 13.9813 24 13.7111 24 13.4062V10.5938C24 10.2889 23.8035 10.0187 23.5135 9.9248ZM22.5938 12.8949L21.4339 13.2705C21.1918 13.3489 21.0109 13.5521 20.961 13.8016C20.7502 14.8564 20.3461 15.8694 19.7598 16.8124C19.6494 16.99 19.6238 17.2076 19.6899 17.406L20.1449 18.7706L18.7707 20.1448L17.406 19.6899C17.2077 19.6238 16.9901 19.6494 16.8125 19.7598C15.8693 20.3461 14.8564 20.7502 13.8017 20.961C13.5521 21.0109 13.349 21.1917 13.2705 21.4338L12.8949 22.5938H11.1051L10.7295 21.4339C10.651 21.1918 10.4479 21.011 10.1983 20.9611C9.14367 20.7503 8.1307 20.3461 7.18753 19.7599C7.00997 19.6495 6.79242 19.6239 6.594 19.69L5.22933 20.1449L3.85514 18.7706L4.31006 17.406C4.3762 17.2076 4.35056 16.99 4.24017 16.8124C3.71367 15.9654 3.33258 15.047 3.10748 14.0828C3.05934 13.8766 2.92078 13.703 2.73033 13.6104L1.40625 12.9664V11.0337L2.73033 10.3897C2.92078 10.297 3.05934 10.1235 3.10748 9.91716C3.3585 8.84142 3.79017 7.83938 4.39045 6.93891C4.53038 6.72895 4.54711 6.46017 4.43433 6.23447L3.90619 5.17823L5.17823 3.90623L6.23447 4.43433C6.46008 4.54716 6.72895 4.53047 6.93886 4.3905C7.83947 3.79022 8.84152 3.35855 9.91711 3.10753C10.1234 3.05939 10.297 2.92083 10.3896 2.73038L11.0337 1.40625H12.9663L13.6103 2.73033C13.703 2.92078 13.8766 3.05939 14.0828 3.10748C15.1584 3.3585 16.1604 3.79017 17.0611 4.3905C17.2711 4.53042 17.5399 4.54716 17.7655 4.43433L18.8217 3.90623L20.0938 5.17823L19.5656 6.23447C19.4528 6.46012 19.4695 6.72895 19.6095 6.93886C20.273 7.93434 20.7278 9.03098 20.961 10.1984C21.0108 10.448 21.1917 10.6511 21.4339 10.7295L22.5938 11.1051V12.8949Z" fill="#344054"/>
</g>
</g>
</g>
<defs>
<clipPath id="clip0_737_2723">
<rect width="24" height="24" fill="white"/>
</clipPath>
</defs>
</svg>
