<svg width="24" height="24" viewBox="0 0 24 24" fill="none" xmlns="http://www.w3.org/2000/svg">
<path fill-rule="evenodd" clip-rule="evenodd" d="M11.5 20.2633H2.95C2.897 20.2633 2.846 20.2413 2.809 20.2043C2.771 20.1663 2.75 20.1163 2.75 20.0633V18.6123C2.75 17.7823 3.343 17.0503 4.257 16.4283C5.889 15.3143 8.53 14.6123 11.5 14.6123C11.914 14.6123 12.25 14.2763 12.25 13.8623C12.25 13.4493 11.914 13.1123 11.5 13.1123C8.178 13.1123 5.237 13.9433 3.411 15.1883C2.018 16.1383 1.25 17.3453 1.25 18.6123V20.0633C1.25 20.5133 1.429 20.9463 1.748 21.2653C2.067 21.5833 2.499 21.7633 2.95 21.7633H11.5C11.914 21.7623 12.25 21.4263 12.25 21.0123C12.25 20.5993 11.914 20.2623 11.5 20.2633Z" fill="#7C69EF"/>
<path fill-rule="evenodd" clip-rule="evenodd" d="M11.5 1.25C8.464 1.25 6 3.714 6 6.75C6 9.786 8.464 12.25 11.5 12.25C14.536 12.25 17 9.786 17 6.75C17 3.714 14.536 1.25 11.5 1.25ZM11.5 2.75C13.708 2.75 15.5 4.542 15.5 6.75C15.5 8.958 13.708 10.75 11.5 10.75C9.292 10.75 7.5 8.958 7.5 6.75C7.5 4.542 9.292 2.75 11.5 2.75Z" fill="#7C69EF"/>
<path fill-rule="evenodd" clip-rule="evenodd" d="M17.5005 13.9375C15.5345 13.9375 13.9385 15.5335 13.9385 17.4995C13.9385 19.4655 15.5345 21.0625 17.5005 21.0625C19.4665 21.0625 21.0635 19.4655 21.0635 17.4995C21.0635 15.5335 19.4665 13.9375 17.5005 13.9375ZM17.5005 15.4375C18.6385 15.4375 19.5635 16.3615 19.5635 17.4995C19.5635 18.6375 18.6385 19.5625 17.5005 19.5625C16.3625 19.5625 15.4375 18.6375 15.4375 17.4995C15.4375 16.3615 16.3625 15.4375 17.5005 15.4375Z" fill="#7C69EF"/>
<path fill-rule="evenodd" clip-rule="evenodd" d="M18.25 14.687V13C18.25 12.586 17.914 12.25 17.5 12.25C17.086 12.25 16.75 12.586 16.75 13V14.688C16.75 15.101 17.086 15.438 17.5 15.438C17.914 15.437 18.25 15.101 18.25 14.687Z" fill="#7C69EF"/>
<path fill-rule="evenodd" clip-rule="evenodd" d="M20.0193 16.0421L21.2123 14.8481C21.5053 14.5561 21.5053 14.0801 21.2123 13.7881C20.9203 13.4951 20.4443 13.4951 20.1523 13.7881L18.9583 14.9811C18.6663 15.2741 18.6663 15.7491 18.9583 16.0421C19.2513 16.3341 19.7263 16.3341 20.0193 16.0421Z" fill="#7C69EF"/>
<path fill-rule="evenodd" clip-rule="evenodd" d="M20.3125 18.25H22.0005C22.4145 18.25 22.7505 17.914 22.7505 17.5C22.7505 17.086 22.4145 16.75 22.0005 16.75H20.3125C19.8995 16.75 19.5635 17.086 19.5635 17.5C19.5625 17.914 19.8995 18.25 20.3125 18.25Z" fill="#7C69EF"/>
<path fill-rule="evenodd" clip-rule="evenodd" d="M18.9583 20.0193L20.1523 21.2123C20.4443 21.5053 20.9203 21.5053 21.2123 21.2123C21.5053 20.9203 21.5053 20.4443 21.2123 20.1523L20.0193 18.9583C19.7263 18.6663 19.2513 18.6663 18.9583 18.9583C18.6663 19.2513 18.6663 19.7263 18.9583 20.0193Z" fill="#7C69EF"/>
<path fill-rule="evenodd" clip-rule="evenodd" d="M16.75 20.3115V21.9995C16.75 22.4135 17.086 22.7495 17.5 22.7495C17.914 22.7495 18.25 22.4135 18.25 21.9995V20.3115C18.25 19.8985 17.914 19.5625 17.5 19.5615C17.086 19.5615 16.75 19.8985 16.75 20.3115Z" fill="#7C69EF"/>
<path fill-rule="evenodd" clip-rule="evenodd" d="M14.9811 18.9583L13.7881 20.1523C13.4951 20.4443 13.4951 20.9203 13.7881 21.2123C14.0801 21.5053 14.5561 21.5053 14.8481 21.2123L16.0421 20.0193C16.3341 19.7263 16.3341 19.2513 16.0421 18.9583C15.7491 18.6663 15.2741 18.6663 14.9811 18.9583Z" fill="#7C69EF"/>
<path fill-rule="evenodd" clip-rule="evenodd" d="M14.687 16.75H13C12.586 16.75 12.25 17.086 12.25 17.5C12.25 17.914 12.586 18.25 13 18.25H14.687C15.101 18.25 15.438 17.914 15.437 17.5C15.437 17.086 15.101 16.75 14.687 16.75Z" fill="#7C69EF"/>
<path fill-rule="evenodd" clip-rule="evenodd" d="M16.0421 14.9811L14.8481 13.7881C14.5561 13.4951 14.0801 13.4951 13.7881 13.7881C13.4951 14.0801 13.4951 14.5561 13.7881 14.8481L14.9811 16.0421C15.2741 16.3341 15.7491 16.3341 16.0421 16.0421C16.3341 15.7491 16.3341 15.2741 16.0421 14.9811Z" fill="#7C69EF"/>
</svg>
