<svg width="24" height="24" viewBox="0 0 24 24" fill="none" xmlns="http://www.w3.org/2000/svg">
<g clip-path="url(#clip0_737_2619)">
<path d="M21.8906 8.53125H13.5938V2.10938C13.5938 0.946266 12.6475 0 11.4844 0H2.10938C0.946266 0 0 0.946266 0 2.10938V10.5469C0 11.5886 0.759047 12.4564 1.75313 12.6262L1.41581 14.65C1.3672 14.9417 1.50633 15.2327 1.76391 15.378C1.87181 15.4389 1.99083 15.4688 2.10923 15.4688C2.27348 15.4688 2.43647 15.4113 2.56697 15.2995L5.65073 12.6562H10.4062V19.0781C10.4062 20.2412 11.3525 21.1875 12.5156 21.1875H18.3493L21.433 23.8307C21.5635 23.9426 21.7265 24 21.8908 24C22.0091 24 22.1282 23.9701 22.2361 23.9093C22.4937 23.7639 22.6328 23.473 22.5842 23.1813L22.2469 21.1574C23.241 20.9876 24 20.1198 24 19.0781V10.6406C24 9.47752 23.0537 8.53125 21.8906 8.53125ZM5.39062 11.25C5.22277 11.25 5.06048 11.31 4.93303 11.4193L3.12108 12.9724L3.27169 12.0687C3.30567 11.8649 3.2482 11.6564 3.11461 11.4986C2.98106 11.3409 2.7848 11.25 2.57812 11.25H2.10938C1.72167 11.25 1.40625 10.9346 1.40625 10.5469V2.10938C1.40625 1.72167 1.72167 1.40625 2.10938 1.40625H11.4844C11.8721 1.40625 12.1875 1.72167 12.1875 2.10938V10.5469C12.1875 10.9346 11.8721 11.25 11.4844 11.25H5.39062ZM22.5938 19.0781C22.5938 19.4658 22.2783 19.7812 21.8906 19.7812H21.4219C21.2152 19.7812 21.0189 19.8722 20.8854 20.0299C20.7518 20.1876 20.6944 20.3961 20.7283 20.6L20.8789 21.5036L19.067 19.9505C18.9395 19.8413 18.7772 19.7812 18.6094 19.7812H12.5156C12.1279 19.7812 11.8125 19.4658 11.8125 19.0781V12.6306C12.8203 12.4725 13.5938 11.5984 13.5938 10.5469V9.9375H21.8906C22.2783 9.9375 22.5938 10.2529 22.5938 10.6406V19.0781Z" fill="#344054"/>
<path d="M17.9886 11.8776C17.9861 11.8711 17.9836 11.8648 17.981 11.8584C17.8524 11.5457 17.5509 11.3438 17.2128 11.3438H17.212C16.8736 11.344 16.5722 11.5466 16.444 11.8598C16.4418 11.8651 16.4397 11.8705 16.4377 11.8758L14.3255 17.4216C14.1873 17.7845 14.3694 18.1907 14.7323 18.3289C15.0954 18.4672 15.5015 18.285 15.6397 17.9221L15.9932 16.9938H18.4162L18.7658 17.9201C18.8721 18.2017 19.1396 18.3752 19.4237 18.3752C19.5062 18.3752 19.5901 18.3606 19.6718 18.3297C20.0352 18.1926 20.2186 17.787 20.0814 17.4236L17.9886 11.8776ZM16.5289 15.5875L17.2104 13.7983L17.8856 15.5875H16.5289Z" fill="#344054"/>
<path d="M9.72722 8.21991C10.0832 7.67152 10.2909 7.01845 10.2909 6.31734C10.2909 4.38478 8.71866 2.8125 6.78605 2.8125C4.85344 2.8125 3.28125 4.38483 3.28125 6.31739C3.28125 8.24995 4.85348 9.82219 6.78609 9.82219C7.51008 9.82219 8.18344 9.6015 8.74256 9.22392L9.11222 9.59358C9.24952 9.73087 9.42947 9.79955 9.60938 9.79955C9.78928 9.79955 9.96928 9.73087 10.1065 9.59358C10.3811 9.31903 10.3811 8.87381 10.1065 8.59922L9.72722 8.21991ZM6.78609 8.41594C5.62894 8.41594 4.6875 7.47455 4.6875 6.31739C4.6875 5.16019 5.62894 4.2188 6.78609 4.2188C7.94325 4.2188 8.88469 5.16019 8.88469 6.31739C8.88469 6.62775 8.81644 6.92231 8.69498 7.18763L8.31403 6.80667C8.03948 6.53208 7.59427 6.53212 7.31967 6.80667C7.04508 7.08122 7.04508 7.52644 7.31967 7.80103L7.71642 8.19778C7.43578 8.33714 7.12003 8.41594 6.78609 8.41594Z" fill="#344054"/>
</g>
<defs>
<clipPath id="clip0_737_2619">
<rect width="24" height="24" fill="white"/>
</clipPath>
</defs>
</svg>
