<svg width="24" height="24" viewBox="0 0 24 24" fill="none" xmlns="http://www.w3.org/2000/svg">
<g id="fi_4598485" clip-path="url(#clip0_9_16975)">
<g id="Group">
<g id="Group_2">
<path id="Vector" d="M24 6.75001L12 7.23291L0 6.75001V2.70724C0 2.04051 0.540507 1.5 1.20724 1.5H22.7928C23.4595 1.5 24 2.04051 24 2.70724V6.75001Z" fill="#91DAFA"/>
</g>
<path id="Vector_2" d="M22.7924 1.5H20.709C21.3757 1.5 21.9162 2.04051 21.9162 2.70724L21.8903 6.75001L22.945 7.23291L23.9997 6.75001V2.70724C23.9996 2.04051 23.4591 1.5 22.7924 1.5Z" fill="#6EC2FC"/>
<g id="Group_3">
<path id="Vector_3" d="M0 6.75V11.6378L0.482897 11.9882L0 12.3622V16.8878L0.482897 17.1969L0 17.6122V20.7422C0 21.7131 0.787026 22.5 1.75779 22.5H7.63765L8.00914 22.0171L8.36199 22.5H15.6377L16.0521 22.0171L16.362 22.5H22.2422C23.213 22.5 24 21.7131 24 20.7422V17.6122L23.5171 17.3257L24 16.8879V12.3622L23.5171 12L24 11.6378V6.75H16.3621L15.9969 7.2329L15.6377 6.75H8.36204L8.04599 7.2329L7.6377 6.75H0Z" fill="#F8E883"/>
</g>
<g id="Group_4">
<path id="Vector_4" d="M21.8906 6.75V21.0937C21.8906 21.8704 21.261 22.5 20.4844 22.5H22.2422C23.213 22.5 24 21.713 24 20.7422V17.6121L23.5171 17.3624L24 16.8878V12.3622L23.5171 12L24 11.6378V6.75H21.8906Z" fill="#FFD549"/>
</g>
<g id="Group_5">
<path id="Vector_5" d="M24 16.8878H16.3621V12.3622H24V11.6378H16.3621V6.75H15.6377V11.6378H8.36204V6.75H7.6377V11.6378H0V12.3622H7.6377V16.8878H0V17.6122H7.6377V22.5H8.36204V17.6122H15.6377V22.5H16.3621V17.6122H24V16.8878ZM15.6377 16.8878H8.36204V12.3622H15.6377V16.8878Z" fill="#FCF5F5"/>
<g id="Group_6">
<path id="Vector_6" d="M21.8906 11.6377H24V12.362H21.8906V11.6377Z" fill="#F8E883"/>
<path id="Vector_7" d="M21.8906 16.8877H24V17.612H21.8906V16.8877Z" fill="#F8E883"/>
</g>
</g>
</g>
</g>
<defs>
<clipPath id="clip0_9_16975">
<rect width="24" height="24" fill="white"/>
</clipPath>
</defs>
</svg>
