<svg width="14" height="14" viewBox="0 0 14 14" fill="none" xmlns="http://www.w3.org/2000/svg">
<g id="fi_1442954" clip-path="url(#clip0_413_101317)">
<path id="Vector" d="M13.9198 6.76534C12.749 4.30055 10.0869 2.07812 6.97266 2.07812C3.4686 2.07812 0.949876 4.81923 0.025528 6.76534C-0.0449677 6.91381 -0.0449677 7.0862 0.025528 7.23467C1.19629 9.69945 3.85846 11.9219 6.97266 11.9219C10.4767 11.9219 12.9955 9.18067 13.9198 7.23467C13.9903 7.0862 13.9903 6.91381 13.9198 6.76534ZM6.97266 10.8281C4.45319 10.8281 2.36428 9.16775 1.13893 7C2.35915 4.84113 4.44678 3.17188 6.97266 3.17188C9.49192 3.17188 11.5811 4.83205 12.8064 7C11.5862 9.15877 9.49854 10.8281 6.97266 10.8281ZM6.97266 4.26563C5.46491 4.26563 4.23829 5.49225 4.23829 7C4.23829 8.50776 5.46491 9.73438 6.97266 9.73438C8.48042 9.73438 9.70704 8.50776 9.70704 7C9.70704 5.49225 8.48042 4.26563 6.97266 4.26563ZM6.97266 8.64063C6.06808 8.64063 5.33204 7.90459 5.33204 7C5.33204 6.09531 6.06808 5.35938 6.97266 5.35938C7.87736 5.35938 8.61329 6.09531 8.61329 7C8.61329 7.90459 7.87736 8.64063 6.97266 8.64063Z" fill="#7C69EF"/>
</g>
<defs>
<clipPath id="clip0_413_101317">
<rect width="14" height="14" fill="white"/>
</clipPath>
</defs>
</svg>
