<svg width="16" height="16" viewBox="0 0 16 16" fill="none" xmlns="http://www.w3.org/2000/svg">
<g id="fi_1442954" clip-path="url(#clip0_407_18035)">
<path id="Vector" d="M15.9083 7.73182C14.5703 4.91492 11.5278 2.375 7.96876 2.375C3.96412 2.375 1.08557 5.50769 0.0291749 7.73182C-0.0513916 7.90149 -0.0513916 8.09852 0.0291749 8.26819C1.36719 11.0851 4.40967 13.625 7.96876 13.625C11.9734 13.625 14.8519 10.4922 15.9083 8.26819C15.9889 8.09852 15.9889 7.90149 15.9083 7.73182ZM7.96876 12.375C5.08936 12.375 2.70203 10.4774 1.30164 8.00001C2.69617 5.53272 5.08204 3.625 7.96876 3.625C10.8479 3.625 13.2355 5.52234 14.6359 8.00001C13.2413 10.4672 10.8555 12.375 7.96876 12.375ZM7.96876 4.875C6.24561 4.875 4.84375 6.27686 4.84375 8.00001C4.84375 9.72315 6.24561 11.125 7.96876 11.125C9.6919 11.125 11.0938 9.72315 11.0938 8.00001C11.0938 6.27686 9.6919 4.875 7.96876 4.875ZM7.96876 9.87501C6.93494 9.87501 6.09376 9.03382 6.09376 8.00001C6.09376 6.96607 6.93494 6.125 7.96876 6.125C9.00269 6.125 9.84376 6.96607 9.84376 8.00001C9.84376 9.03382 9.00269 9.87501 7.96876 9.87501Z" fill="#7C69EF"/>
</g>
<defs>
<clipPath id="clip0_407_18035">
<rect width="16" height="16" fill="white"/>
</clipPath>
</defs>
</svg>
